
<svg width="1440" height="600" viewBox="0 0 1440 600" fill="none" xmlns="http://www.w3.org/2000/svg">
  <pattern id="pattern" patternUnits="userSpaceOnUse" width="100" height="100" patternTransform="scale(2) rotate(0)">
    <rect width="100" height="100" fill="none"/>
    <path d="M50 0C22.4 0 0 22.4 0 50C0 77.6 22.4 100 50 100C77.6 100 100 77.6 100 50C100 22.4 77.6 0 50 0ZM50 90C27.9 90 10 72.1 10 50C10 27.9 27.9 10 50 10C72.1 10 90 27.9 90 50C90 72.1 72.1 90 50 90Z" fill="currentColor"/>
    <circle cx="50" cy="50" r="20" fill="currentColor"/>
  </pattern>
  <rect width="1440" height="600" fill="url(#pattern)" fill-opacity="0.5"/>
</svg>
