
<svg width="1440" height="600" viewBox="0 0 1440 600" fill="none" xmlns="http://www.w3.org/2000/svg">
  <defs>
    <pattern id="pattern" patternUnits="userSpaceOnUse" width="100" height="100" patternTransform="scale(2) rotate(0)">
      <rect width="100" height="100" fill="none"/>
      <path 
        d="M50 0C22.4 0 0 22.4 0 50C0 77.6 22.4 100 50 100C77.6 100 100 77.6 100 50C100 22.4 77.6 0 50 0ZM50 90C27.9 90 10 72.1 10 50C10 27.9 27.9 10 50 10C72.1 10 90 27.9 90 50C90 72.1 72.1 90 50 90Z" 
        fill="currentColor"
        opacity="0.6"
      />
      <path 
        d="M50 30C38.954 30 30 38.954 30 50C30 61.046 38.954 70 50 70C61.046 70 70 61.046 70 50C70 38.954 61.046 30 50 30ZM50 60C44.477 60 40 55.523 40 50C40 44.477 44.477 40 50 40C55.523 40 60 44.477 60 50C60 55.523 55.523 60 50 60Z" 
        fill="currentColor"
        opacity="0.8"
      />
      <circle cx="50" cy="50" r="8" fill="currentColor"/>
    </pattern>
    
    <!-- Moroccan-inspired patterns -->
    <pattern id="moroccanPattern" patternUnits="userSpaceOnUse" width="120" height="120" patternTransform="scale(1.5) rotate(45)">
      <rect width="120" height="120" fill="none"/>
      <path d="M0,0 L60,0 L60,60 L0,60 Z" fill="none" stroke="currentColor" stroke-width="1" opacity="0.4"/>
      <path d="M60,0 L120,0 L120,60 L60,60 Z" fill="none" stroke="currentColor" stroke-width="1" opacity="0.4"/>
      <path d="M0,60 L60,60 L60,120 L0,120 Z" fill="none" stroke="currentColor" stroke-width="1" opacity="0.4"/>
      <path d="M60,60 L120,60 L120,120 L60,120 Z" fill="none" stroke="currentColor" stroke-width="1" opacity="0.4"/>
      <circle cx="30" cy="30" r="15" fill="none" stroke="currentColor" stroke-width="1" opacity="0.3"/>
      <circle cx="90" cy="30" r="15" fill="none" stroke="currentColor" stroke-width="1" opacity="0.3"/>
      <circle cx="30" cy="90" r="15" fill="none" stroke="currentColor" stroke-width="1" opacity="0.3"/>
      <circle cx="90" cy="90" r="15" fill="none" stroke="currentColor" stroke-width="1" opacity="0.3"/>
    </pattern>
  </defs>
  
  <rect width="1440" height="600" fill="url(#pattern)" fill-opacity="0.4"/>
  <rect width="1440" height="600" fill="url(#moroccanPattern)" fill-opacity="0.3"/>
</svg>
